<svg  xmlns="http://www.w3.org/2000/svg"
      viewBox="0 0 512 512">
		<path d="M461.339,373.584c-5.522,0-10,4.478-10,10c0,2.476-2.009,4.489-4.478,4.489H279.8c-5.522,0-10,4.478-10,10    c0,5.522,4.478,10,10,10h167.062c13.497,0,24.478-10.986,24.478-24.489C471.339,378.061,466.861,373.584,461.339,373.584z"/>
		<path d="M256.179,335.874c-1.491-2.22-3.741-3.73-6.361-4.25c-0.649-0.13-1.31-0.2-1.96-0.2c-4.75,0-8.88,3.391-9.8,8.051    c-1.08,5.409,2.45,10.689,7.85,11.76c0.65,0.13,1.311,0.2,1.961,0.2c4.75,0,8.869-3.391,9.8-8.051    C258.189,340.764,257.658,338.094,256.179,335.874z"/>
		<path d="M465.646,311.998l-69.988-28.004l10.749-69.981l10.956,4.06c1.125,0.417,2.302,0.623,3.475,0.623    c1.761,0,3.513-0.465,5.067-1.379c2.59-1.522,4.357-4.128,4.815-7.097l12.708-82.379c0,0,18.661,0.002,18.673,0.002    c3.657,0,7.182-2.015,8.939-5.504l21.729-43.146c2.483-4.933,0.499-10.945-4.434-13.43c-4.934-2.482-10.945-0.499-13.43,4.434    l-18.955,37.644H350.291c-5.328,0-9.671,4.171-9.971,9.425l-4.573,19.104c-1.285,5.371,2.026,10.768,7.397,12.054    c0.782,0.187,1.565,0.276,2.336,0.276c4.521,0,8.619-3.085,9.718-7.674l3.156-13.185h19.52l-8.536,64.123    c-0.617,4.632,2.056,9.072,6.438,10.696l11.488,4.257l-10.667,69.448l-198.672-79.494c-4.462-1.765-8.999-3.268-13.598-4.522    l-7.048-50.947h10.906c18.075,0,32.781-14.706,32.781-32.781s-14.706-32.78-32.781-32.78h-42.001L86.324,65.16    c-2.781-0.745-5.641-1.123-8.5-1.123c-14.801,0-27.815,9.994-31.648,24.302c-2.267,8.458-1.104,17.292,3.274,24.875    s11.447,13.008,19.905,15.273l26.926,7.215l7.573,54.744C44.655,202.617,0,255.129,0,317.876    c0,71.73,58.356,130.087,130.087,130.087h311.87c38.622,0,70.043-31.421,70.043-70.043    C512,348.432,493.38,321.965,465.646,311.998z M398.05,127.841h25.144l-10.37,67.22l-22.607-8.378L398.05,127.841z M74.531,109.17    c-3.298-0.884-6.054-2.998-7.761-5.955c-1.707-2.956-2.16-6.4-1.276-9.698c1.495-5.581,6.565-9.479,12.33-9.479    c1.112,0,2.229,0.148,3.323,0.441l41.133,11.022c0.844,0.227,1.714,0.341,2.588,0.341h43.317c7.048,0,12.781,5.733,12.781,12.78    c0,7.048-5.733,12.781-12.781,12.781H122.88c-0.161-0.01-3.303-0.163-4.341-0.441L74.531,109.17z M143.604,188.49    c-4.468-0.461-8.976-0.7-13.517-0.7c-2.142,0-4.271,0.055-6.388,0.158l-6.487-46.896c1.52,0.213,5.164,0.352,5.413,0.352h14.466    L143.604,188.49z M441.957,427.963H199.415c17.588-11.099,32.364-26.33,42.903-44.27c1.351-2.311,1.73-5,1.051-7.58    c-0.671-2.59-2.301-4.76-4.61-6.11c-1.53-0.899-3.28-1.38-5.061-1.38c-3.529,0-6.84,1.89-8.619,4.94    c-19.74,33.56-56.141,54.399-94.99,54.399h-0.002C69.385,427.963,20,378.579,20,317.876s49.385-110.087,110.087-110.087    c13.979,0,27.6,2.584,40.444,7.666l287.857,115.18l0.359,0.136C478.637,337.856,492,356.803,492,377.92    C492,405.514,469.551,427.963,441.957,427.963z"/>
		<path d="M158.459,382.404h-18.37v-64.53c0-5.51-4.49-10-10-10c-5.521,0-10,4.49-10,10v74.53c0,5.51,4.479,10,10,10h28.37    c5.51,0,9.989-4.49,9.989-10C168.448,386.883,163.969,382.404,158.459,382.404z"/>
		<path d="M158.198,279.994c-8.26-5.54-17.859-8.47-27.77-8.47h-0.08c-16.7,0-32.22,8.29-41.52,22.16    c-5.551,8.27-8.48,17.88-8.471,27.81c0,9.57,2.71,18.89,7.851,26.94c1.84,2.89,5,4.619,8.439,4.619c1.9,0,3.75-0.54,5.37-1.569    c4.64-2.96,6.01-9.15,3.061-13.79c-0.011-0.01-0.011-0.01-0.011-0.021c-3.08-4.83-4.71-10.42-4.71-16.18    c0-5.95,1.761-11.71,5.08-16.66c5.57-8.32,14.9-13.29,24.95-13.31c5.95,0.01,11.71,1.77,16.67,5.09    c8.311,5.57,13.28,14.899,13.3,24.95c-0.01,5.76-1.67,11.38-4.8,16.239c-1.45,2.24-1.939,4.921-1.38,7.53    c0.56,2.61,2.1,4.851,4.35,6.3c1.62,1.04,3.49,1.601,5.42,1.601c3.41,0,6.551-1.71,8.41-4.58c5.24-8.101,8-17.47,8-27.09    C180.369,304.854,172.089,289.314,158.198,279.994z"/>
</svg>

<svg  xmlns="http://www.w3.org/2000/svg"
      viewBox="0 0 512.009 512.009">
		<path d="M441.071,192.046l-3.729-0.042c-52,0-98.785,29.068-122.577,74.587c-14.966-6.75-31.194-10.587-48.09-10.587    c-27.913,0-54.163,9.952-74.945,27.285c-0.401-18.324-2.788-36.573-5.117-52.785c-1.995-13.861-3.909-27.31-4.034-38.509    l53.93,0.009c8.542,0,16.583-3.333,22.625-9.375l42.667-42.667c12.195-12.195,12.279-31.755,0.638-44.289    c4.066-6.094,6.003-13.393,5.258-20.846c-0.948-9.573-6.083-18.135-14.094-23.469l-25.896-17.26    c-12.51-8.344-27.083-12.76-42.135-12.76c-31.375,0-60.865,12.219-83.052,34.406C101.654,96.608,69.498,143.4,46.915,194.827    c-27.208,61.958-41,107.667-41,135.844c0,16.146-1.396,29.26-4.156,38.99c-5.896,20.781,3.385,42.948,22.563,53.906    c76.823,43.896,164.198,67.104,252.677,67.104h15.427c54.844,0,109.031-8.792,161.063-26.135l7.469-2.5    c30.531-10.167,51.052-38.635,51.052-70.823V266.765C512.009,226.598,480.186,193.077,441.071,192.046z M490.675,391.213    c0,22.99-14.656,43.323-36.479,50.594l-7.469,2.5c-49.833,16.604-101.75,25.031-154.302,25.031h-15.427    c-84.771,0-168.49-22.229-242.094-64.292c-10.646-6.083-15.833-18.24-12.625-29.563c3.302-11.615,4.969-26.698,4.969-44.813    c0-24.854,13.552-68.854,39.208-127.26c21.5-49,52.167-93.604,91.146-132.583c18.156-18.156,42.292-28.156,67.969-28.156    c10.823,0,21.302,3.177,30.302,9.177l25.896,17.26c2.677,1.781,4.385,4.635,4.698,7.823c0.323,3.198-0.802,6.323-3.063,8.594    l-34.073,34.073c-3.646,3.646-9.198,4.542-13.802,2.24c-3.479-1.74-5.833-4.938-6.458-8.781s0.594-7.625,3.344-10.375l9.802-9.802    c4.167-4.167,4.167-10.917,0-15.083c-4.167-4.167-10.917-4.167-15.083,0l-9.802,9.802c-7.656,7.656-11.063,18.188-9.323,28.885    c1.74,10.688,8.292,19.594,17.979,24.438c12.813,6.396,28.281,3.917,38.427-6.24l23.332-23.332    c2.883,4.154,2.668,9.832-1.03,13.53l-42.667,42.667c-1.99,1.99-4.74,3.125-7.542,3.125l-49.807-0.008    c0.669-1.107,1.311-2.246,2.182-3.117c4.167-4.167,4.167-10.917,0-15.083c-4.167-4.167-10.917-4.167-15.083,0    c-17.448,17.448-13.208,46.938-8.302,81.083c2.542,17.729,5.177,36.063,5.177,54.458c0,43.938-33.25,53.292-34.667,53.667    c-5.667,1.469-9.104,7.229-7.677,12.917c1.208,4.854,5.552,8.083,10.333,8.083c0.854,0,1.729-0.104,2.594-0.323    c12.772-3.191,33.703-15.448,44.224-40.589c0.145-0.194,0.381-0.267,0.516-0.474c17.792-27.521,47.948-43.948,80.677-43.948    c25.479,0,49.479,9.875,67.573,27.813c4.188,4.146,10.948,4.125,15.083-0.063c4.146-4.188,4.125-10.938-0.063-15.083    c-4.935-4.893-10.345-9.112-15.939-12.999c20.049-38.836,59.803-63.668,104.012-63.668l3.156,0.042    c27.667,0.729,50.177,24.677,50.177,53.385V391.213z"/>
</svg>


background: url('data:image/svg+xml;utf8,<svg xmlns="http://www.w3.org/2000/svg" viewBox="0 0 512 512"><path d="M461.339 373.584c-5.522 0-10 4.478-10 10 0 2.476-2.009 4.489-4.478 4.489H279.8c-5.522 0-10 4.478-10 10s4.478 10 10 10h167.062c13.497 0 24.478-10.986 24.478-24.489-.001-5.523-4.479-10-10.001-10zM256.179 335.874c-1.491-2.22-3.741-3.73-6.361-4.25-.649-.13-1.31-.2-1.96-.2-4.75 0-8.88 3.391-9.8 8.051-1.08 5.409 2.45 10.689 7.85 11.76.65.13 1.311.2 1.961.2 4.75 0 8.869-3.391 9.8-8.051.52-2.62-.011-5.29-1.49-7.51z"/>
<path d="M465.646 311.998l-69.988-28.004 10.749-69.981 10.956 4.06c1.125.417 2.302.623 3.475.623 1.761 0 3.513-.465 5.067-1.379 2.59-1.522 4.357-4.128 4.815-7.097l12.708-82.379s18.661.002 18.673.002c3.657 0 7.182-2.015 8.939-5.504l21.729-43.146c2.483-4.933.499-10.945-4.434-13.43-4.934-2.482-10.945-.499-13.43 4.434l-18.955 37.644H350.291c-5.328 0-9.671 4.171-9.971 9.425l-4.573 19.104c-1.285 5.371 2.026 10.768 7.397 12.054.782.187 1.565.276 2.336.276 4.521 0 8.619-3.085 9.718-7.674l3.156-13.185h19.52l-8.536 64.123c-.617 4.632 2.056 9.072 6.438 10.696l11.488 4.257-10.667 69.448-198.672-79.494c-4.462-1.765-8.999-3.268-13.598-4.522l-7.048-50.947h10.906c18.075 0 32.781-14.706 32.781-32.781s-14.706-32.78-32.781-32.78h-42.001L86.324 65.16c-2.781-.745-5.641-1.123-8.5-1.123-14.801 0-27.815 9.994-31.648 24.302-2.267 8.458-1.104 17.292 3.274 24.875s11.447 13.008 19.905 15.273l26.926 7.215 7.573 54.744C44.655 202.617 0 255.129 0 317.876c0 71.73 58.356 130.087 130.087 130.087h311.87c38.622 0 70.043-31.421 70.043-70.043 0-29.488-18.62-55.955-46.354-65.922zM398.05 127.841h25.144l-10.37 67.22-22.607-8.378 7.833-58.842zM74.531 109.17c-3.298-.884-6.054-2.998-7.761-5.955-1.707-2.956-2.16-6.4-1.276-9.698 1.495-5.581 6.565-9.479 12.33-9.479 1.112 0 2.229.148 3.323.441l41.133 11.022c.844.227 1.714.341 2.588.341h43.317c7.048 0 12.781 5.733 12.781 12.78 0 7.048-5.733 12.781-12.781 12.781H122.88c-.161-.01-3.303-.163-4.341-.441L74.531 109.17zm69.073 79.32c-4.468-.461-8.976-.7-13.517-.7-2.142 0-4.271.055-6.388.158l-6.487-46.896c1.52.213 5.164.352 5.413.352h14.466l6.513 47.086zm298.353 239.473H199.415c17.588-11.099 32.364-26.33 42.903-44.27 1.351-2.311 1.73-5 1.051-7.58-.671-2.59-2.301-4.76-4.61-6.11-1.53-.899-3.28-1.38-5.061-1.38-3.529 0-6.84 1.89-8.619 4.94-19.74 33.56-56.141 54.399-94.99 54.399h-.002C69.385 427.963 20 378.579 20 317.876s49.385-110.087 110.087-110.087c13.979 0 27.6 2.584 40.444 7.666l287.857 115.18.359.136C478.637 337.856 492 356.803 492 377.92c0 27.594-22.449 50.043-50.043 50.043z"/>
<path d="M158.459 382.404h-18.37v-64.53c0-5.51-4.49-10-10-10-5.521 0-10 4.49-10 10v74.53c0 5.51 4.479 10 10 10h28.37c5.51 0 9.989-4.49 9.989-10 0-5.521-4.479-10-9.989-10z"/>
<path d="M158.198 279.994c-8.26-5.54-17.859-8.47-27.77-8.47h-.08c-16.7 0-32.22 8.29-41.52 22.16-5.551 8.27-8.48 17.88-8.471 27.81 0 9.57 2.71 18.89 7.851 26.94 1.84 2.89 5 4.619 8.439 4.619 1.9 0 3.75-.54 5.37-1.569 4.64-2.96 6.01-9.15 3.061-13.79-.011-.01-.011-.01-.011-.021-3.08-4.83-4.71-10.42-4.71-16.18 0-5.95 1.761-11.71 5.08-16.66 5.57-8.32 14.9-13.29 24.95-13.31 5.95.01 11.71 1.77 16.67 5.09 8.311 5.57 13.28 14.899 13.3 24.95-.01 5.76-1.67 11.38-4.8 16.239-1.45 2.24-1.939 4.921-1.38 7.53.56 2.61 2.1 4.851 4.35 6.3 1.62 1.04 3.49 1.601 5.42 1.601 3.41 0 6.551-1.71 8.41-4.58 5.24-8.101 8-17.47 8-27.09.012-16.709-8.268-32.249-22.159-41.569z"/></svg>');

<svg xmlns="http://www.w3.org/2000/svg" viewBox="0 0 512 512">
  <path d="M461.339 373.584c-5.522 0-10 4.478-10 10 0 2.476-2.009 4.489-4.478 4.489H279.8c-5.522 0-10 4.478-10 10s4.478 10 10 10h167.062c13.497 0 24.478-10.986 24.478-24.489-.001-5.523-4.479-10-10.001-10zM256.179 335.874c-1.491-2.22-3.741-3.73-6.361-4.25-.649-.13-1.31-.2-1.96-.2-4.75 0-8.88 3.391-9.8 8.051-1.08 5.409 2.45 10.689 7.85 11.76.65.13 1.311.2 1.961.2 4.75 0 8.869-3.391 9.8-8.051.52-2.62-.011-5.29-1.49-7.51z"/>
  <path d="M465.646 311.998l-69.988-28.004 10.749-69.981 10.956 4.06c1.125.417 2.302.623 3.475.623 1.761 0 3.513-.465 5.067-1.379 2.59-1.522 4.357-4.128 4.815-7.097l12.708-82.379s18.661.002 18.673.002c3.657 0 7.182-2.015 8.939-5.504l21.729-43.146c2.483-4.933.499-10.945-4.434-13.43-4.934-2.482-10.945-.499-13.43 4.434l-18.955 37.644H350.291c-5.328 0-9.671 4.171-9.971 9.425l-4.573 19.104c-1.285 5.371 2.026 10.768 7.397 12.054.782.187 1.565.276 2.336.276 4.521 0 8.619-3.085 9.718-7.674l3.156-13.185h19.52l-8.536 64.123c-.617 4.632 2.056 9.072 6.438 10.696l11.488 4.257-10.667 69.448-198.672-79.494c-4.462-1.765-8.999-3.268-13.598-4.522l-7.048-50.947h10.906c18.075 0 32.781-14.706 32.781-32.781s-14.706-32.78-32.781-32.78h-42.001L86.324 65.16c-2.781-.745-5.641-1.123-8.5-1.123-14.801 0-27.815 9.994-31.648 24.302-2.267 8.458-1.104 17.292 3.274 24.875s11.447 13.008 19.905 15.273l26.926 7.215 7.573 54.744C44.655 202.617 0 255.129 0 317.876c0 71.73 58.356 130.087 130.087 130.087h311.87c38.622 0 70.043-31.421 70.043-70.043 0-29.488-18.62-55.955-46.354-65.922zM398.05 127.841h25.144l-10.37 67.22-22.607-8.378 7.833-58.842zM74.531 109.17c-3.298-.884-6.054-2.998-7.761-5.955-1.707-2.956-2.16-6.4-1.276-9.698 1.495-5.581 6.565-9.479 12.33-9.479 1.112 0 2.229.148 3.323.441l41.133 11.022c.844.227 1.714.341 2.588.341h43.317c7.048 0 12.781 5.733 12.781 12.78 0 7.048-5.733 12.781-12.781 12.781H122.88c-.161-.01-3.303-.163-4.341-.441L74.531 109.17zm69.073 79.32c-4.468-.461-8.976-.7-13.517-.7-2.142 0-4.271.055-6.388.158l-6.487-46.896c1.52.213 5.164.352 5.413.352h14.466l6.513 47.086zm298.353 239.473H199.415c17.588-11.099 32.364-26.33 42.903-44.27 1.351-2.311 1.73-5 1.051-7.58-.671-2.59-2.301-4.76-4.61-6.11-1.53-.899-3.28-1.38-5.061-1.38-3.529 0-6.84 1.89-8.619 4.94-19.74 33.56-56.141 54.399-94.99 54.399h-.002C69.385 427.963 20 378.579 20 317.876s49.385-110.087 110.087-110.087c13.979 0 27.6 2.584 40.444 7.666l287.857 115.18.359.136C478.637 337.856 492 356.803 492 377.92c0 27.594-22.449 50.043-50.043 50.043z"/>
  <path d="M158.459 382.404h-18.37v-64.53c0-5.51-4.49-10-10-10-5.521 0-10 4.49-10 10v74.53c0 5.51 4.479 10 10 10h28.37c5.51 0 9.989-4.49 9.989-10 0-5.521-4.479-10-9.989-10z"/>
  <path d="M158.198 279.994c-8.26-5.54-17.859-8.47-27.77-8.47h-.08c-16.7 0-32.22 8.29-41.52 22.16-5.551 8.27-8.48 17.88-8.471 27.81 0 9.57 2.71 18.89 7.851 26.94 1.84 2.89 5 4.619 8.439 4.619 1.9 0 3.75-.54 5.37-1.569 4.64-2.96 6.01-9.15 3.061-13.79-.011-.01-.011-.01-.011-.021-3.08-4.83-4.71-10.42-4.71-16.18 0-5.95 1.761-11.71 5.08-16.66 5.57-8.32 14.9-13.29 24.95-13.31 5.95.01 11.71 1.77 16.67 5.09 8.311 5.57 13.28 14.899 13.3 24.95-.01 5.76-1.67 11.38-4.8 16.239-1.45 2.24-1.939 4.921-1.38 7.53.56 2.61 2.1 4.851 4.35 6.3 1.62 1.04 3.49 1.601 5.42 1.601 3.41 0 6.551-1.71 8.41-4.58 5.24-8.101 8-17.47 8-27.09.012-16.709-8.268-32.249-22.159-41.569z"/>
</svg>

<svg xmlns="http://www.w3.org/2000/svg" viewBox="0 0 512.009 512.009">
  <path d="M441.071 192.046l-3.729-.042c-52 0-98.785 29.068-122.577 74.587-14.966-6.75-31.194-10.587-48.09-10.587-27.913 0-54.163 9.952-74.945 27.285-.401-18.324-2.788-36.573-5.117-52.785-1.995-13.861-3.909-27.31-4.034-38.509l53.93.009c8.542 0 16.583-3.333 22.625-9.375l42.667-42.667c12.195-12.195 12.279-31.755.638-44.289 4.066-6.094 6.003-13.393 5.258-20.846-.948-9.573-6.083-18.135-14.094-23.469l-25.896-17.26c-12.51-8.344-27.083-12.76-42.135-12.76-31.375 0-60.865 12.219-83.052 34.406-40.866 40.864-73.022 87.656-95.605 139.083-27.208 61.958-41 107.667-41 135.844 0 16.146-1.396 29.26-4.156 38.99-5.896 20.781 3.385 42.948 22.563 53.906 76.823 43.896 164.198 67.104 252.677 67.104h15.427c54.844 0 109.031-8.792 161.063-26.135l7.469-2.5c30.531-10.167 51.052-38.635 51.052-70.823V266.765c-.001-40.167-31.824-73.688-70.939-74.719zm49.604 199.167c0 22.99-14.656 43.323-36.479 50.594l-7.469 2.5c-49.833 16.604-101.75 25.031-154.302 25.031h-15.427c-84.771 0-168.49-22.229-242.094-64.292-10.646-6.083-15.833-18.24-12.625-29.563 3.302-11.615 4.969-26.698 4.969-44.813 0-24.854 13.552-68.854 39.208-127.26 21.5-49 52.167-93.604 91.146-132.583 18.156-18.156 42.292-28.156 67.969-28.156 10.823 0 21.302 3.177 30.302 9.177l25.896 17.26c2.677 1.781 4.385 4.635 4.698 7.823.323 3.198-.802 6.323-3.063 8.594l-34.073 34.073c-3.646 3.646-9.198 4.542-13.802 2.24-3.479-1.74-5.833-4.938-6.458-8.781s.594-7.625 3.344-10.375l9.802-9.802c4.167-4.167 4.167-10.917 0-15.083-4.167-4.167-10.917-4.167-15.083 0l-9.802 9.802c-7.656 7.656-11.063 18.188-9.323 28.885 1.74 10.688 8.292 19.594 17.979 24.438 12.813 6.396 28.281 3.917 38.427-6.24l23.332-23.332c2.883 4.154 2.668 9.832-1.03 13.53l-42.667 42.667c-1.99 1.99-4.74 3.125-7.542 3.125l-49.807-.008c.669-1.107 1.311-2.246 2.182-3.117 4.167-4.167 4.167-10.917 0-15.083-4.167-4.167-10.917-4.167-15.083 0-17.448 17.448-13.208 46.938-8.302 81.083 2.542 17.729 5.177 36.063 5.177 54.458 0 43.938-33.25 53.292-34.667 53.667-5.667 1.469-9.104 7.229-7.677 12.917 1.208 4.854 5.552 8.083 10.333 8.083.854 0 1.729-.104 2.594-.323 12.772-3.191 33.703-15.448 44.224-40.589.145-.194.381-.267.516-.474 17.792-27.521 47.948-43.948 80.677-43.948 25.479 0 49.479 9.875 67.573 27.813 4.188 4.146 10.948 4.125 15.083-.063 4.146-4.188 4.125-10.938-.063-15.083-4.935-4.893-10.345-9.112-15.939-12.999 20.049-38.836 59.803-63.668 104.012-63.668l3.156.042c27.667.729 50.177 24.677 50.177 53.385v124.448z"/>
</svg>
